<?xml version="1.0" encoding="UTF-8" standalone="no"?>
<!-- Created with Inkscape (http://www.inkscape.org/) -->

<svg
   xmlns:dc="http://purl.org/dc/elements/1.1/"
   xmlns:cc="http://creativecommons.org/ns#"
   xmlns:rdf="http://www.w3.org/1999/02/22-rdf-syntax-ns#"
   xmlns:svg="http://www.w3.org/2000/svg"
   xmlns="http://www.w3.org/2000/svg"
   xmlns:xlink="http://www.w3.org/1999/xlink"
   xmlns:sodipodi="http://sodipodi.sourceforge.net/DTD/sodipodi-0.dtd"
   xmlns:inkscape="http://www.inkscape.org/namespaces/inkscape"
   width="128px"
   height="128px"
   viewBox="0 0 128 128"
   version="1.1"
   id="SVGRoot"
   inkscape:version="0.92.2 2405546, 2018-03-11"
   sodipodi:docname="logo.svg"
   inkscape:export-filename="/home/valczir/dev/vidar/src/github.com/nelsam/vidar/asset/logo.png"
   inkscape:export-xdpi="90"
   inkscape:export-ydpi="90">
  <sodipodi:namedview
     id="base"
     pagecolor="#ffffff"
     bordercolor="#666666"
     borderopacity="1.0"
     inkscape:pageopacity="0.0"
     inkscape:pageshadow="2"
     inkscape:zoom="7.9999996"
     inkscape:cx="99.152109"
     inkscape:cy="66.72255"
     inkscape:document-units="px"
     inkscape:current-layer="layer2"
     showgrid="false"
     inkscape:window-width="3440"
     inkscape:window-height="1417"
     inkscape:window-x="0"
     inkscape:window-y="0"
     inkscape:window-maximized="1"
     inkscape:grid-bbox="true" />
  <defs
     id="defs4518">
    <inkscape:path-effect
       effect="mirror_symmetry"
       start_point="63.398282,4.300501"
       end_point="63.398282,50.474065"
       center_point="63.398282,27.387283"
       id="path-effect850"
       is_visible="true"
       mode="free"
       discard_orig_path="false"
       fuse_paths="true"
       oposite_fuse="false" />
    <inkscape:path-effect
       effect="mirror_symmetry"
       start_point="63.780481,21.568874"
       end_point="63.780481,51.314107"
       center_point="63.780481,36.441491"
       id="path-effect866"
       is_visible="true"
       mode="free"
       discard_orig_path="false"
       fuse_paths="false"
       oposite_fuse="false" />
    <inkscape:path-effect
       effect="mirror_symmetry"
       start_point="63.396281,48.040678"
       end_point="63.396281,51.593246"
       center_point="63.396281,49.816962"
       id="path-effect862"
       is_visible="true"
       mode="free"
       discard_orig_path="false"
       fuse_paths="false"
       oposite_fuse="false" />
    <linearGradient
       inkscape:collect="always"
       id="linearGradient5249-5">
      <stop
         style="stop-color:#2e2e2e;stop-opacity:1"
         offset="0"
         id="stop5245" />
      <stop
         style="stop-color:#e3d3bc;stop-opacity:1"
         offset="1"
         id="stop5247" />
    </linearGradient>
    <linearGradient
       inkscape:collect="always"
       id="linearGradient5172">
      <stop
         style="stop-color:#000000;stop-opacity:1;"
         offset="0"
         id="stop5168" />
      <stop
         style="stop-color:#000000;stop-opacity:0"
         offset="1"
         id="stop5170" />
    </linearGradient>
    <inkscape:path-effect
       effect="mirror_symmetry"
       start_point="63.9985,40.077419"
       end_point="63.9985,41.80959"
       center_point="63.9985,40.943505"
       id="path-effect5164"
       is_visible="true"
       mode="free"
       discard_orig_path="false"
       fuse_paths="false"
       oposite_fuse="false" />
    <inkscape:path-effect
       effect="mirror_symmetry"
       start_point="63.860318,4.5587086"
       end_point="63.396277,50.230056"
       center_point="63.628297,27.394382"
       id="path-effect5133"
       is_visible="true"
       mode="free"
       discard_orig_path="false"
       fuse_paths="true"
       oposite_fuse="false" />
    <inkscape:path-effect
       effect="mirror_symmetry"
       start_point="63.45843,56.452085"
       end_point="63.45843,74.573975"
       center_point="63.45843,65.51303"
       id="path-effect5131"
       is_visible="true"
       mode="free"
       discard_orig_path="false"
       fuse_paths="false"
       oposite_fuse="false" />
    <inkscape:path-effect
       effect="mirror_symmetry"
       start_point="63.561512,87.242856"
       end_point="63.561512,101.29093"
       center_point="63.561512,94.266893"
       id="path-effect5129"
       is_visible="true"
       mode="free"
       discard_orig_path="false"
       fuse_paths="false"
       oposite_fuse="false" />
    <inkscape:path-effect
       effect="mirror_symmetry"
       start_point="63.891984,10.656103"
       end_point="63.891984,122.85115"
       center_point="63.891984,66.753626"
       id="path-effect5127"
       is_visible="true"
       mode="free"
       discard_orig_path="false"
       fuse_paths="true"
       oposite_fuse="false" />
    <linearGradient
       inkscape:collect="always"
       xlink:href="#linearGradient5172"
       id="linearGradient5176"
       gradientUnits="userSpaceOnUse"
       x1="53.060974"
       y1="21.508972"
       x2="55.531952"
       y2="21.383972"
       gradientTransform="matrix(1.3218857,0,0,1.3218857,-8.8117293,-0.49730743)" />
    <radialGradient
       inkscape:collect="always"
       xlink:href="#linearGradient5249-5"
       id="radialGradient5251"
       cx="57.141117"
       cy="54.564049"
       fx="57.141117"
       fy="54.564049"
       r="36.041037"
       gradientTransform="matrix(-0.01966905,3.7412202,-8.4516676,-0.04443379,526.20773,-159.75975)"
       gradientUnits="userSpaceOnUse" />
  </defs>
  <metadata
     id="metadata4521">
    <rdf:RDF>
      <cc:Work
         rdf:about="">
        <dc:format>image/svg+xml</dc:format>
        <dc:type
           rdf:resource="http://purl.org/dc/dcmitype/StillImage" />
        <dc:title />
      </cc:Work>
    </rdf:RDF>
  </metadata>
  <g
     id="layer1"
     inkscape:groupmode="layer"
     inkscape:label="Base shape"
     style="display:inline">
    <path
       style="fill:#bdbdbd;fill-opacity:1;fill-rule:evenodd;stroke:#000000;stroke-width:0.32474673;stroke-linecap:butt;stroke-linejoin:bevel;stroke-miterlimit:4;stroke-dasharray:none;stroke-opacity:1"
       d="M 28.334628,21.393615 C 25.447291,33.580654 19.224549,40.897212 24.37954,51.35982 l 16.792537,-7.243489 z m 70.891706,0 c 2.887336,12.187039 9.110076,19.503597 3.955086,29.966205 L 86.388885,44.116331 Z"
       id="path864"
       inkscape:connector-curvature="0"
       sodipodi:nodetypes="cccc"
       inkscape:path-effect="#path-effect866"
       inkscape:original-d="M 28.334628,21.393615 C 25.447291,33.580654 19.224549,40.897212 24.37954,51.35982 l 16.792537,-7.243489 z" />
    <path
       style="fill:url(#radialGradient5251);fill-opacity:1;fill-rule:evenodd;stroke:#000000;stroke-width:0.49961036;stroke-linecap:butt;stroke-linejoin:miter;stroke-miterlimit:4;stroke-dasharray:none;stroke-opacity:1"
       d="m 63.891986,32.301982 c -8.6e-5,6e-6 -14.719986,1.092006 -19.910904,1.817593 -3.198094,0.44703 -8.474183,-11.790706 -15.646454,-12.72596 13.730047,26.906965 -3.146502,25.16357 -4.26445,30.571418 -1.814547,8.777501 -9.087964,20.8197 -6.774664,31.560021 2.3133,10.740322 2.809007,12.723151 2.809007,12.723151 0,0 1.397595,-8.746801 3.184436,-12.823088 2.350548,-5.362265 4.269498,-5.935318 4.269498,-5.935318 0,0 -2.662098,3.391484 -3.653513,9.009498 -0.991414,5.618015 0.660943,15.201683 0.660943,15.201683 0,0 0.165236,-8.922726 3.139479,-14.375504 2.974243,-5.452779 5.618014,-6.113722 5.618014,-6.113722 0,0 -5.287543,5.618015 -6.113721,12.392679 -0.826179,6.774667 -0.330472,16.854047 -0.330472,16.854047 0,0 2.476017,-13.098752 5.122307,-16.854047 4.620016,-6.556168 6.265496,-6.801295 6.265496,-6.801295 0,0 -6.595967,5.314174 -6.595967,11.262662 0,5.94848 0.165236,15.86263 0.165236,15.86263 0,0 1.409607,-10.80858 5.78325,-15.6974 6.107137,-6.826498 7.600843,-6.939897 7.600843,-6.939897 0,0 -5.615968,4.67738 -6.9399,7.931317 -2.307447,5.6712 -0.991415,18.34116 -0.991415,18.34116 0,0 4.336222,-10.46827 6.774665,-14.54074 2.665412,-4.45154 3.277789,-4.42958 3.277789,-4.42958 0,0 -1.955904,1.12486 -3.112554,7.23859 -1.15665,6.11372 0,13.8798 0,13.8798 l 3.800422,-10.57509 2.148064,10.90556 4.461365,-9.08797 1.487121,11.23603 4.6266,-10.61639 3.139477,11.56649 3.139477,-11.56649 4.6266,10.61639 1.487121,-11.23603 4.461365,9.08797 2.148064,-10.90556 3.800422,10.57509 c 0,0 1.15665,-7.76608 0,-13.8798 -1.15665,-6.11373 -3.112554,-7.23859 -3.112554,-7.23859 0,0 0.612377,-0.02196 3.277789,4.42958 2.438443,4.07247 6.774665,14.54074 6.774665,14.54074 0,0 1.316032,-12.66996 -0.991415,-18.34116 -1.323932,-3.253937 -6.9399,-7.931317 -6.9399,-7.931317 0,0 1.493706,0.113399 7.600843,6.939897 4.373643,4.88882 5.78325,15.6974 5.78325,15.6974 0,0 0.165236,-9.91415 0.165236,-15.86263 0,-5.948488 -6.595967,-11.262662 -6.595967,-11.262662 0,0 1.64548,0.245127 6.265496,6.801295 2.64629,3.755295 5.122304,16.854047 5.122304,16.854047 0,0 0.49571,-10.07938 -0.33047,-16.854047 -0.826177,-6.774664 -6.11372,-12.392679 -6.11372,-12.392679 0,0 2.643771,0.660943 5.61801,6.113722 2.97425,5.452778 3.13948,14.375504 3.13948,14.375504 0,0 1.65236,-9.583668 0.66095,-15.201683 -0.99142,-5.618014 -3.65352,-9.009498 -3.65352,-9.009498 0,0 1.91895,0.573053 4.2695,5.935318 1.78684,4.076287 3.18444,12.823088 3.18444,12.823088 0,0 0.4957,-1.982829 2.809,-12.723151 2.3133,-10.740321 -4.96011,-22.78252 -6.77466,-31.560021 -1.11795,-5.407848 -17.994497,-3.664453 -4.26445,-30.571418 -7.172271,0.935254 -12.44836,13.17299 -15.646454,12.72596 -5.190918,-0.725587 -19.910818,-1.817587 -19.9109,-1.817593 z"
       id="path5077"
       inkscape:connector-curvature="0"
       inkscape:path-effect="#path-effect5127"
       inkscape:original-d="m 63.891986,32.301982 c 0,0 -14.719971,1.092004 -19.910904,1.817593 -3.198094,0.44703 -8.474183,-11.790706 -15.646454,-12.72596 13.730047,26.906965 -3.146502,25.16357 -4.26445,30.571418 -1.814547,8.777501 -9.087964,20.8197 -6.774664,31.560021 2.3133,10.740322 2.809007,12.723151 2.809007,12.723151 0,0 1.397595,-8.746801 3.184436,-12.823088 2.350548,-5.362265 4.269498,-5.935318 4.269498,-5.935318 0,0 -2.662098,3.391484 -3.653513,9.009498 -0.991414,5.618015 0.660943,15.201683 0.660943,15.201683 0,0 0.165236,-8.922726 3.139479,-14.375504 2.974243,-5.452779 5.618014,-6.113722 5.618014,-6.113722 0,0 -5.287543,5.618015 -6.113721,12.392679 -0.826179,6.774667 -0.330472,16.854047 -0.330472,16.854047 0,0 2.476017,-13.098752 5.122307,-16.854047 4.620016,-6.556168 6.265496,-6.801295 6.265496,-6.801295 0,0 -6.595967,5.314174 -6.595967,11.262662 0,5.94848 0.165236,15.86263 0.165236,15.86263 0,0 1.409607,-10.80858 5.78325,-15.6974 6.107137,-6.826498 7.600843,-6.939897 7.600843,-6.939897 0,0 -5.615968,4.67738 -6.9399,7.931317 -2.307447,5.6712 -0.991415,18.34116 -0.991415,18.34116 0,0 4.336222,-10.46827 6.774665,-14.54074 2.665412,-4.45154 3.277789,-4.42958 3.277789,-4.42958 0,0 -1.955904,1.12486 -3.112554,7.23859 -1.15665,6.11372 0,13.8798 0,13.8798 l 3.800422,-10.57509 2.148064,10.90556 4.461365,-9.08797 1.487121,11.23603 4.6266,-10.61639 3.139479,11.5665"
       sodipodi:nodetypes="cscsscscscscscscscscscscsccccccc" />
  </g>
  <g
     inkscape:groupmode="layer"
     id="layer2"
     inkscape:label="details"
     style="display:inline">
    <path
       style="display:inline;fill:#000000;fill-opacity:1;fill-rule:evenodd;stroke:none;stroke-width:1.3218857px;stroke-linecap:butt;stroke-linejoin:miter;stroke-opacity:1"
       d="m 63.561514,88.027728 c -5.467282,0.0049 -9.105075,2.152216 -9.105075,4.135045 0,1.982828 6.861079,8.764577 9.105936,8.833027 M 63.56151,88.027728 c 5.467282,0.0049 9.105075,2.152216 9.105075,4.135045 0,1.982828 -6.861079,8.764577 -9.105936,8.833027"
       id="path5079"
       inkscape:connector-curvature="0"
       inkscape:path-effect="#path-effect5129"
       inkscape:original-d="m 63.561514,88.027728 c -5.467282,0.0049 -9.105075,2.152216 -9.105075,4.135045 0,1.982828 6.861079,8.764577 9.105936,8.833027"
       sodipodi:nodetypes="csc" />
    <path
       style="display:inline;fill:#ffffff;fill-opacity:1;fill-rule:evenodd;stroke:#000000;stroke-width:0.82435709;stroke-linecap:butt;stroke-linejoin:miter;stroke-miterlimit:4;stroke-dasharray:none;stroke-opacity:1"
       d="m 55.6302,74.106619 c 0,0 -1.982829,-16.193101 -7.270372,-17.680222 -5.287543,-1.487121 -7.931314,0.991414 -12.72315,4.296129 2.148065,5.948485 6.9399,9.2532 18.175929,5.948485 m 17.474053,7.435608 c 0,0 1.982829,-16.193101 7.270372,-17.680222 5.287543,-1.487121 7.931314,0.991414 12.72315,4.296129 -2.148065,5.948485 -6.9399,9.2532 -18.175929,5.948485"
       id="path5081"
       inkscape:connector-curvature="0"
       inkscape:path-effect="#path-effect5131"
       inkscape:original-d="m 55.6302,74.106619 c 0,0 -1.982829,-16.193101 -7.270372,-17.680222 -5.287543,-1.487121 -7.931314,0.991414 -12.72315,4.296129 2.148065,5.948485 6.9399,9.2532 18.175929,5.948485" />
    <path
       style="fill:#dadada;fill-opacity:1;fill-rule:evenodd;stroke:none;stroke-width:1px;stroke-linecap:butt;stroke-linejoin:miter;stroke-opacity:1"
       d="M 63.398282,50.474065 50.245712,48.400654 C 54.062496,21.972663 62.665363,6.1863233 63.398282,4.4296907 64.131201,6.1863233 72.734068,21.972663 76.550852,48.400654 Z m 3.95e-4,-46.1774702 c -1.32e-4,-1.319e-4 -2.64e-4,-2.634e-4 -3.95e-4,-3.945e-4 -1.31e-4,1.311e-4 -2.63e-4,2.626e-4 -3.95e-4,3.945e-4"
       id="path848"
       inkscape:connector-curvature="0"
       inkscape:path-effect="#path-effect850"
       inkscape:original-d="M 63.398282,50.474065 50.245712,48.400654 C 54.402436,19.618868 64.235748,3.4587343 63.397887,4.2965948"
       sodipodi:nodetypes="ccc" />
    <path
       style="display:inline;fill:url(#linearGradient5176);fill-opacity:1;fill-rule:evenodd;stroke:none;stroke-width:1.3218857px;stroke-linecap:butt;stroke-linejoin:miter;stroke-opacity:1"
       d="M 63.396279,4.6249998 63.394296,50.474065 75.128014,48.5777 Z"
       id="path5166"
       inkscape:connector-curvature="0" />
    <path
       style="display:inline;fill:#ff0000;fill-opacity:1;fill-rule:evenodd;stroke:none;stroke-width:1.32396734;stroke-linecap:butt;stroke-linejoin:miter;stroke-miterlimit:4;stroke-dasharray:none;stroke-opacity:1"
       d="m 63.394296,50.474065 -14.951847,-2.433386 14.953833,3.552568 m 0.002,-1.119182 14.951847,-2.433386 -14.953833,3.552568"
       id="path860"
       inkscape:connector-curvature="0"
       inkscape:path-effect="#path-effect862"
       inkscape:original-d="M 63.394296,50.474065 48.442449,48.040679 63.396282,51.593247" />
  </g>
</svg>
