<?xml version="1.0" encoding="UTF-8" standalone="no"?>
<!-- Created with Inkscape (http://www.inkscape.org/) -->

<svg
   xmlns:dc="http://purl.org/dc/elements/1.1/"
   xmlns:cc="http://creativecommons.org/ns#"
   xmlns:rdf="http://www.w3.org/1999/02/22-rdf-syntax-ns#"
   xmlns:svg="http://www.w3.org/2000/svg"
   xmlns="http://www.w3.org/2000/svg"
   xmlns:sodipodi="http://sodipodi.sourceforge.net/DTD/sodipodi-0.dtd"
   xmlns:inkscape="http://www.inkscape.org/namespaces/inkscape"
   width="512"
   height="512"
   viewBox="0 0 512 512"
   version="1.1"
   id="SVGRoot"
   inkscape:version="0.92.2 2405546, 2018-03-11"
   sodipodi:docname="logo.svg">
  <sodipodi:namedview
     id="base"
     pagecolor="#ffffff"
     bordercolor="#666666"
     borderopacity="1.0"
     inkscape:pageopacity="0.0"
     inkscape:pageshadow="2"
     inkscape:zoom="1.4142136"
     inkscape:cx="552.39853"
     inkscape:cy="222.02178"
     inkscape:document-units="px"
     inkscape:current-layer="layer1"
     showgrid="false"
     inkscape:window-width="3440"
     inkscape:window-height="1417"
     inkscape:window-x="0"
     inkscape:window-y="0"
     inkscape:window-maximized="1"
     inkscape:grid-bbox="true"
     inkscape:lockguides="false" />
  <defs
     id="defs861">
    <inkscape:path-effect
       effect="mirror_symmetry"
       start_point="261.27596,106.09337"
       end_point="261.27596,144.98423"
       center_point="261.27596,125.5388"
       id="path-effect1534"
       is_visible="true"
       mode="free"
       discard_orig_path="false"
       fuse_paths="false"
       oposite_fuse="false" />
    <inkscape:path-effect
       effect="mirror_symmetry"
       start_point="260.47343,51.646138"
       end_point="260.47343,108.21469"
       center_point="260.47343,79.930414"
       id="path-effect1530"
       is_visible="true"
       mode="free"
       discard_orig_path="false"
       fuse_paths="false"
       oposite_fuse="false" />
    <inkscape:path-effect
       effect="mirror_symmetry"
       start_point="260.2153,-119.97292"
       end_point="260.2153,-20.832346"
       center_point="260.2153,-70.402633"
       id="path-effect1526"
       is_visible="true"
       mode="free"
       discard_orig_path="false"
       fuse_paths="false"
       oposite_fuse="false" />
    <inkscape:path-effect
       effect="mirror_symmetry"
       start_point="261.47142,177.1321"
       end_point="261.47142,232.91153"
       center_point="261.47142,205.02182"
       id="path-effect1474"
       is_visible="true"
       mode="free"
       discard_orig_path="false"
       fuse_paths="false"
       oposite_fuse="false" />
    <inkscape:path-effect
       effect="mirror_symmetry"
       start_point="255.125,122.375"
       end_point="255.125,190.75"
       center_point="255.125,156.5625"
       id="path-effect1464"
       is_visible="true"
       mode="free"
       discard_orig_path="false"
       fuse_paths="false"
       oposite_fuse="false" />
    <inkscape:path-effect
       effect="mirror_symmetry"
       start_point="261.17696,46.581801"
       end_point="261.17696,94.029375"
       center_point="261.17696,70.305588"
       id="path-effect1460"
       is_visible="true"
       mode="free"
       discard_orig_path="false"
       fuse_paths="false"
       oposite_fuse="false" />
    <inkscape:path-effect
       effect="mirror_symmetry"
       start_point="261.77818,136.13294"
       end_point="261.77818,166.54995"
       center_point="261.77818,151.34144"
       id="path-effect1448"
       is_visible="true"
       mode="free"
       discard_orig_path="false"
       fuse_paths="true"
       oposite_fuse="false" />
    <inkscape:path-effect
       effect="mirror_symmetry"
       start_point="261.46414,-200.89078"
       end_point="261.46414,317.57384"
       center_point="261.46414,58.34153"
       id="path-effect1927"
       is_visible="true"
       mode="free"
       discard_orig_path="false"
       fuse_paths="true"
       oposite_fuse="false" />
    <inkscape:path-effect
       effect="mirror_symmetry"
       start_point="259.56421,-234.32225"
       end_point="259.56421,-18.482939"
       center_point="259.56421,-126.40259"
       id="path-effect1933"
       is_visible="true"
       mode="free"
       discard_orig_path="false"
       fuse_paths="true"
       oposite_fuse="false" />
    <inkscape:path-effect
       effect="mirror_symmetry"
       start_point="260.02158,-6.5825004"
       end_point="260.02158,51.789195"
       center_point="260.02158,22.603347"
       id="path-effect1941"
       is_visible="true"
       mode="free"
       discard_orig_path="false"
       fuse_paths="false"
       oposite_fuse="false" />
    <inkscape:path-effect
       effect="mirror_symmetry"
       start_point="259.54557,-40.527946"
       end_point="259.54557,-28.52932"
       center_point="259.54557,-34.528633"
       id="path-effect2369"
       is_visible="true"
       mode="free"
       discard_orig_path="false"
       fuse_paths="false"
       oposite_fuse="false" />
  </defs>
  <metadata
     id="metadata864">
    <rdf:RDF>
      <cc:Work
         rdf:about="">
        <dc:format>image/svg+xml</dc:format>
        <dc:type
           rdf:resource="http://purl.org/dc/dcmitype/StillImage" />
        <dc:title></dc:title>
      </cc:Work>
    </rdf:RDF>
  </metadata>
  <g
     id="layer1"
     inkscape:groupmode="layer"
     inkscape:label="Layer 1"
     transform="translate(0,256)">
    <path
       style="fill:#000000;fill-opacity:1;fill-rule:evenodd;stroke:#fffdfd;stroke-width:10.85984325px;stroke-linecap:butt;stroke-linejoin:miter;stroke-opacity:1"
       d="m 260.78536,-108.5821 c 0,0 -81.88806,23.361999 -97.53263,31.175956 C 119.34784,-100.5298 64.672401,-149.1298 64.672401,-149.1298 c 0,0 -22.132916,53.178116 24.568458,168.704305 C 85.129822,90.304887 64.94577,133.28423 64.94577,133.28423 c 0,0 13.912904,1.42926 22.674577,-2.51177 -7.621694,29.23377 -16.566193,30.28624 -16.566193,30.28624 l 30.617316,-12.97023 c -0.55701,7.64724 -1.3614,25.20459 -1.902117,33.13454 l 17.870607,-9.35575 c -0.99643,7.84591 1.68992,2.72785 -3.58489,13.78254 l 24.18106,-8.09369 c -0.71749,15.6166 1.11052,15.14689 -3.5849,29.76898 l 25.86384,-13.56271 c -0.81024,16.47866 33.43636,-3.04532 33.43636,-3.04532 42.77165,19.5333 60.40674,17.2816 67.51271,5.90467 7.10597,11.37693 24.74106,13.62863 67.51271,-5.90467 0,0 34.2466,19.52398 33.43636,3.04532 l 25.86384,13.56271 c -4.69542,-14.62209 -2.86741,-14.15238 -3.5849,-29.76898 l 24.18106,8.09369 c -5.27481,-11.05469 -2.58846,-5.93663 -3.58489,-13.78254 l 17.87061,9.35575 c -0.54072,-7.92995 -1.34511,-25.4873 -1.90212,-33.13454 l 30.61732,12.97023 c 0,0 -8.9445,-1.05247 -16.5662,-30.28624 8.76168,3.94103 22.67458,2.51177 22.67458,2.51177 0,0 -20.18405,-42.979343 -24.29509,-113.709725 46.70137,-115.526189 24.56846,-168.704305 24.56846,-168.704305 0,0 -54.67544,48.6 -98.58033,71.723656 -15.64457,-7.813957 -97.53263,-31.175956 -97.53263,-31.175956"
       id="path1925"
       inkscape:connector-curvature="0"
       inkscape:original-d="m 260.78536,-108.5821 c 0,0 -81.88806,23.361999 -97.53263,31.175956 C 119.34784,-100.5298 64.672401,-149.1298 64.672401,-149.1298 c 0,0 -22.132916,53.178116 24.568458,168.704305 C 85.129822,90.304887 64.94577,133.28423 64.94577,133.28423 c 0,0 13.912904,1.42926 22.674577,-2.51177 -7.621694,29.23377 -16.566193,30.28624 -16.566193,30.28624 l 30.617316,-12.97023 c -0.55701,7.64724 -1.3614,25.20459 -1.902117,33.13454 l 17.870607,-9.35575 c -0.99643,7.84591 1.68992,2.72785 -3.58489,13.78254 l 24.18106,-8.09369 c -0.71749,15.6166 1.11052,15.14689 -3.5849,29.76898 l 25.86384,-13.56271 c -0.81024,16.47866 33.43636,-3.04532 33.43636,-3.04532 59.71682,27.27196 70.43464,12.07815 71.90888,-11.12678"
       sodipodi:nodetypes="cccccccccccccccc"
       inkscape:path-effect="#path-effect1927" />
    <path
       style="fill:#000000;fill-opacity:1;fill-rule:evenodd;stroke:#fffdfd;stroke-width:10.87694645;stroke-linecap:butt;stroke-linejoin:miter;stroke-miterlimit:4;stroke-dasharray:none;stroke-opacity:1"
       d="m 199.9156,-36.736027 c 13.90734,-75.422903 38.44341,-133.839783 59.64861,-197.586103 21.2052,63.74632 45.74127,122.1632 59.64861,197.586103"
       id="path1931"
       inkscape:connector-curvature="0"
       inkscape:path-effect="#path-effect1933"
       inkscape:original-d="m 199.9156,-36.736027 c 13.90734,-75.422923 38.44343,-133.839823 59.64863,-197.586163"
       sodipodi:nodetypes="cc" />
    <path
       style="fill:#fff8f8;fill-opacity:1;fill-rule:evenodd;stroke:none;stroke-width:10.85984325px;stroke-linecap:butt;stroke-linejoin:miter;stroke-opacity:1"
       d="m 126.96488,-4.0879539 c 0,0 56.30751,-17.1626391 102.10042,31.0378339 -16.46326,-10.124653 -83.51165,49.157309 -97.60419,-26.5544929 -0.51871,-2.7867195 -4.49623,-4.483341 -4.49623,-4.483341 z m 266.1134,0 c 0,0 -56.30751,-17.1626391 -102.10042,31.0378339 16.46326,-10.124653 83.51165,49.157309 97.60419,-26.5544929 0.51871,-2.7867195 4.49623,-4.483341 4.49623,-4.483341 z"
       id="path1939"
       inkscape:connector-curvature="0"
       inkscape:path-effect="#path-effect1941"
       inkscape:original-d="m 126.96488,-4.0879539 c 0,0 56.30751,-17.1626391 102.10042,31.0378339 -16.46326,-10.124653 -83.51165,49.157309 -97.60419,-26.5544929 -0.51871,-2.7867195 -4.49623,-4.483341 -4.49623,-4.483341 z"
       sodipodi:nodetypes="ccsc" />
    <path
       style="fill:#ff0000;fill-opacity:1;fill-rule:evenodd;stroke:none;stroke-width:10.85984325px;stroke-linecap:butt;stroke-linejoin:miter;stroke-opacity:1"
       d="m 206.27656,-41.701047 c 10.30227,6.229714 23.46979,9.457726 35.0548,13.891603 -16.18369,-2.460704 -29.73576,-3.131912 -52.41873,-10.012127 m 123.90195,-3.879476 c -10.30227,6.229714 -23.46979,9.457726 -35.0548,13.891603 16.18369,-2.460704 29.73576,-3.131912 52.41873,-10.012127"
       id="path2367"
       inkscape:connector-curvature="0"
       inkscape:path-effect="#path-effect2369"
       inkscape:original-d="m 206.27656,-41.701047 c 10.30227,6.229714 23.46979,9.457726 35.0548,13.891603 -16.18369,-2.460704 -29.73576,-3.131912 -52.41873,-10.012127"
       sodipodi:nodetypes="ccc" />
    <path
       style="fill:#ffffff;fill-opacity:1;fill-rule:evenodd;stroke:none;stroke-width:1.18990791px;stroke-linecap:butt;stroke-linejoin:miter;stroke-opacity:1"
       d="m 277.75981,-27.809444 -17.76875,2.481674 -0.0525,-170.38187 c 8.8047,51.27978 15.18044,106.534219 17.82134,167.900196 z"
       id="path1444"
       inkscape:connector-curvature="0"
       sodipodi:nodetypes="cccc" />
    <path
       style="fill:#fff8f8;fill-opacity:1;fill-rule:evenodd;stroke:none;stroke-width:1.18990791px;stroke-linecap:butt;stroke-linejoin:miter;stroke-opacity:1"
       d="m 261.79611,166.54996 c 0.18591,-11.11819 51.41512,-40.47054 43.15274,-51.72381 -5.37755,-7.32417 -37.57067,-6.66142 -43.17067,-6.56738 -5.6,-0.094 -37.79312,-0.75679 -43.17067,6.56738 -8.26238,11.25327 42.96683,40.60562 43.15274,51.72381"
       id="path1446"
       inkscape:connector-curvature="0"
       inkscape:path-effect="#path-effect1448"
       inkscape:original-d="m 262.47141,108.26772 c -2.49137,0 -38.17626,-1.18807 -43.8639,6.55843 -8.26238,11.25327 42.96683,40.60562 43.15274,51.72381"
       sodipodi:nodetypes="csc" />
    <path
       style="fill:#ffffff;fill-opacity:1;fill-rule:evenodd;stroke:none;stroke-width:1.18990791px;stroke-linecap:butt;stroke-linejoin:miter;stroke-opacity:1"
       d="m 222.1703,47.176757 c -2.08509,39.933539 -8.33131,47.445616 -8.32936,47.447586 6.40667,-6.396774 13.30003,-8.413165 20.0797,-11.452873 -4.41396,1.392898 -4.33211,0.01913 -13.46083,4.313418 l 1.46878,-17.36522 c 4.51211,-1.927771 8.70124,-3.532568 12.02923,-4.276231 -2.99144,-0.454003 -6.63222,-0.366907 -11.99203,1.152724 z m 78.01332,0 c 2.08509,39.933539 8.33131,47.445616 8.32936,47.447586 -6.40667,-6.396774 -13.30003,-8.413165 -20.0797,-11.452873 4.41396,1.392898 4.33211,0.01913 13.46083,4.313418 l -1.46878,-17.36522 c -4.51211,-1.927771 -8.70124,-3.532568 -12.02923,-4.276231 2.99144,-0.454003 6.63222,-0.366907 11.99203,1.152724 z"
       id="path1450"
       inkscape:connector-curvature="0"
       sodipodi:nodetypes="cccccccc"
       inkscape:path-effect="#path-effect1460"
       inkscape:original-d="m 222.1703,47.176757 c -2.08509,39.933539 -8.33131,47.445616 -8.32936,47.447586 6.40667,-6.396774 13.30003,-8.413165 20.0797,-11.452873 -4.41396,1.392898 -4.33211,0.01913 -13.46083,4.313418 l 1.46878,-17.36522 c 4.51211,-1.927771 8.70124,-3.532568 12.02923,-4.276231 -2.99144,-0.454003 -6.63222,-0.366907 -11.99203,1.152724 z" />
    <path
       style="fill:#fff8f8;fill-opacity:1;fill-rule:evenodd;stroke:#000000;stroke-width:1.18990791px;stroke-linecap:butt;stroke-linejoin:miter;stroke-opacity:1"
       d="m 193.85002,183.47977 c -7.00985,5.24764 -20.6667,9.78119 -20.6667,9.78119 -0.75592,4.31296 2.02847,9.0586 5.15354,14.04071 2.37651,-12.94743 6.9914,-15.96691 10.14929,-20.56151 l 5.2587,-2.94487 c 0.77288,7.26041 0.76702,13.62095 13.7778,35.02293 1.48685,-10.01295 2.39641,-21.10488 6.52078,-26.18832 l 7.57253,2.62935 c 2.50738,13.60539 10.51501,25.59304 17.56405,37.86264 3.18838,-11.78874 6.03414,-23.844 10.41223,-34.70742 -20.93099,3.15603 -50.09964,-11.5055 -55.74222,-14.9347 z m 135.2428,0 c 7.00985,5.24764 20.6667,9.78119 20.6667,9.78119 0.75592,4.31296 -2.02847,9.0586 -5.15354,14.04071 -2.37651,-12.94743 -6.9914,-15.96691 -10.14929,-20.56151 l -5.2587,-2.94487 c -0.77288,7.26041 -0.76702,13.62095 -13.7778,35.02293 -1.48685,-10.01295 -2.39641,-21.10488 -6.52078,-26.18832 l -7.57253,2.62935 c -2.50738,13.60539 -10.51501,25.59304 -17.56405,37.86264 -3.18838,-11.78874 -6.03414,-23.844 -10.41223,-34.70742 20.93099,3.15603 50.09964,-11.5055 55.74222,-14.9347 z"
       id="path1472"
       inkscape:connector-curvature="0"
       sodipodi:nodetypes="ccccccccccc"
       inkscape:path-effect="#path-effect1474"
       inkscape:original-d="m 193.85002,183.47977 c -7.00985,5.24764 -20.6667,9.78119 -20.6667,9.78119 -0.75592,4.31296 2.02847,9.0586 5.15354,14.04071 2.37651,-12.94743 6.9914,-15.96691 10.14929,-20.56151 l 5.2587,-2.94487 c 0.77288,7.26041 0.76702,13.62095 13.7778,35.02293 1.48685,-10.01295 2.39641,-21.10488 6.52078,-26.18832 l 7.57253,2.62935 c 2.50738,13.60539 10.51501,25.59304 17.56405,37.86264 3.18838,-11.78874 6.03414,-23.844 10.41223,-34.70742 -20.93099,3.15603 -50.09964,-11.5055 -55.74222,-14.9347 z" />
    <path
       style="fill:#ffffff;fill-opacity:1;fill-rule:evenodd;stroke:none;stroke-width:1px;stroke-linecap:butt;stroke-linejoin:miter;stroke-opacity:1"
       d="m 114.19775,-24.72139 c -2.29792,-42.249111 -40.056909,-102.49304 -38.890878,-98.99495 14.282247,30.361075 28.312438,61.226257 38.890878,98.99495 z m 292.0351,0 c 2.29792,-42.249111 40.05691,-102.49304 38.89088,-98.99495 -14.28225,30.361075 -28.31244,61.226257 -38.89088,98.99495 z"
       id="path1524"
       inkscape:connector-curvature="0"
       sodipodi:nodetypes="ccc"
       inkscape:path-effect="#path-effect1526"
       inkscape:original-d="m 114.19775,-24.72139 c -2.29792,-42.249111 -40.056909,-102.49304 -38.890878,-98.99495 14.282247,30.361075 28.312438,61.226257 38.890878,98.99495 z" />
    <path
       style="fill:#ffffff;fill-opacity:1;fill-rule:evenodd;stroke:none;stroke-width:1px;stroke-linecap:butt;stroke-linejoin:miter;stroke-opacity:1"
       d="m 113.84419,50.23193 c -0.7071,13.08147 -12.72792,56.56854 -12.72792,56.56854 0,0 9.54594,-23.33452 12.02082,-33.58757 2.47487,-10.25305 0.7071,-22.98097 0.7071,-22.98097 z m 293.25848,0 c 0.7071,13.08147 12.72792,56.56854 12.72792,56.56854 0,0 -9.54594,-23.33452 -12.02082,-33.58757 -2.47487,-10.25305 -0.7071,-22.98097 -0.7071,-22.98097 z"
       id="path1528"
       inkscape:connector-curvature="0"
       inkscape:path-effect="#path-effect1530"
       inkscape:original-d="m 113.84419,50.23193 c -0.7071,13.08147 -12.72792,56.56854 -12.72792,56.56854 0,0 9.54594,-23.33452 12.02082,-33.58757 2.47487,-10.25305 0.7071,-22.98097 0.7071,-22.98097 z" />
    <path
       style="fill:#ffffff;fill-opacity:1;fill-rule:evenodd;stroke:none;stroke-width:1px;stroke-linecap:butt;stroke-linejoin:miter;stroke-opacity:1"
       d="m 126.21856,142.15581 8.83884,-38.89087 c 0,0 0,14.49568 -1.76777,22.98097 -1.76777,8.48528 -7.07107,15.9099 -7.07107,15.9099 z m 270.1148,0 -8.83884,-38.89087 c 0,0 0,14.49568 1.76777,22.98097 1.76777,8.48528 7.07107,15.9099 7.07107,15.9099 z"
       id="path1532"
       inkscape:connector-curvature="0"
       inkscape:path-effect="#path-effect1534"
       inkscape:original-d="m 126.21856,142.15581 8.83884,-38.89087 c 0,0 0,14.49568 -1.76777,22.98097 -1.76777,8.48528 -7.07107,15.9099 -7.07107,15.9099 z" />
  </g>
</svg>
